{
  "accessors": [
    {
      "bufferView": 2,
      "componentType": 5126,
      "count": 1756,
      "max": [
        3.2560200691223145,
        9.2872896194458,
        2.507270097732544
      ],
      "min": [
        -1.6732699871063232,
        -0.10481999814510345,
        -2.4974899291992188
      ],
      "type": "VEC3"
    },
    {
      "bufferView": 2,
      "byteOffset": 21072,
      "componentType": 5126,
      "count": 1756,
      "max": [
        0.9995849132537842,
        0.999172031879425,
        0.9999426007270813
      ],
      "min": [
        -0.9985259175300598,
        -0.9998301267623901,
        -0.9999820590019226
      ],
      "type": "VEC3"
    },
    {
      "bufferView": 3,
      "componentType": 5126,
      "count": 1756,
      "max": [
        0.9985685348510742,
        0.9999966025352478,
        0.9998275637626648,
        1.0
      ],
      "min": [
        -0.9958370327949524,
        -0.9572760462760925,
        -0.9999999403953552,
        -1.0
      ],
      "type": "VEC4"
    },
    {
      "bufferView": 1,
      "componentType": 5126,
      "count": 1756,
      "max": [
        1.7522200345993042,
        0.9980999827384949
      ],
      "min": [
        -0.7522199749946594,
        0.00107999995816499
      ],
      "type": "VEC2"
    },
    {
      "bufferView": 1,
      "byteOffset": 14048,
      "componentType": 5126,
      "count": 1756,
      "max": [
        1.7522200345993042,
        0.9980999827384949
      ],
      "min": [
        -0.7522199749946594,
        0.00107999995816499
      ],
      "type": "VEC2"
    },
    {
      "bufferView": 0,
      "componentType": 5125,
      "count": 8592,
      "type": "SCALAR"
    },
    {
      "bufferView": 2,
      "byteOffset": 42144,
      "componentType": 5126,
      "count": 9572,
      "max": [
        7.544300079345703,
        10.0,
        2.499340057373047
      ],
      "min": [
        -2.9030699729919434,
        0.18870000541210175,
        -2.503230094909668
      ],
      "type": "VEC3"
    },
    {
      "bufferView": 2,
      "byteOffset": 157008,
      "componentType": 5126,
      "count": 9572,
      "max": [
        1.0,
        1.0,
        1.0
      ],
      "min": [
        -1.0,
        -1.0,
        -1.0
      ],
      "type": "VEC3"
    },
    {
      "bufferView": 3,
      "byteOffset": 28096,
      "componentType": 5126,
      "count": 9572,
      "max": [
        1.0,
        1.0,
        1.0,
        1.0
      ],
      "min": [
        -1.0,
        -1.0,
        -1.0,
        -1.0
      ],
      "type": "VEC4"
    },
    {
      "bufferView": 1,
      "byteOffset": 28096,
      "componentType": 5126,
      "count": 9572,
      "max": [
        0.9990500211715698,
        0.9984400272369385
      ],
      "min": [
        0.0007800000021234155,
        0.0035000001080334187
      ],
      "type": "VEC2"
    },
    {
      "bufferView": 1,
      "byteOffset": 104672,
      "componentType": 5126,
      "count": 9572,
      "max": [
        0.9990500211715698,
        0.9984400272369385
      ],
      "min": [
        0.0007800000021234155,
        0.0035000001080334187
      ],
      "type": "VEC2"
    },
    {
      "bufferView": 0,
      "byteOffset": 34368,
      "componentType": 5125,
      "count": 24864,
      "type": "SCALAR"
    }
  ],
  "asset": {
    "extras": {
      "author": "Arkady Gribachev (https://sketchfab.com/prephonat)",
      "license": "CC-BY-NC-4.0 (http://creativecommons.org/licenses/by-nc/4.0/)",
      "source": "https://sketchfab.com/3d-models/industrial-robot-74017754d6d443a1bc258da98b08e6fc",
      "title": "Industrial Robot"
    },
    "generator": "Sketchfab-12.66.0",
    "version": "2.0"
  },
  "bufferViews": [
    {
      "buffer": 0,
      "byteLength": 133824,
      "name": "floatBufferViews",
      "target": 34963
    },
    {
      "buffer": 0,
      "byteLength": 181248,
      "byteOffset": 133824,
      "byteStride": 8,
      "name": "floatBufferViews",
      "target": 34962
    },
    {
      "buffer": 0,
      "byteLength": 271872,
      "byteOffset": 315072,
      "byteStride": 12,
      "name": "floatBufferViews",
      "target": 34962
    },
    {
      "buffer": 0,
      "byteLength": 181248,
      "byteOffset": 586944,
      "byteStride": 16,
      "name": "floatBufferViews",
      "target": 34962
    }
  ],
  "buffers": [
    {
      "byteLength": 768192,
      "uri": "scene.bin"
    }
  ],
  "extensionsRequired": [
    "KHR_materials_pbrSpecularGlossiness"
  ],
  "extensionsUsed": [
    "KHR_materials_pbrSpecularGlossiness"
  ],
  "images": [
    {
      "uri": "textures/Base_New_diffuse.jpeg"
    },
    {
      "uri": "textures/Base_New_specularGlossiness.png"
    },
    {
      "uri": "textures/Base_New_normal.jpeg"
    },
    {
      "uri": "textures/Base_New_occlusion.png"
    },
    {
      "uri": "textures/Cloth_New_diffuse.jpeg"
    },
    {
      "uri": "textures/Cloth_New_specularGlossiness.png"
    },
    {
      "uri": "textures/Cloth_New_normal.jpeg"
    }
  ],
  "materials": [
    {
      "doubleSided": true,
      "extensions": {
        "KHR_materials_pbrSpecularGlossiness": {
          "diffuseFactor": [
            1.0,
            1.0,
            1.0,
            1.0
          ],
          "diffuseTexture": {
            "index": 0
          },
          "glossinessFactor": 1.0,
          "specularFactor": [
            1.0,
            1.0,
            1.0
          ],
          "specularGlossinessTexture": {
            "index": 1
          }
        }
      },
      "name": "Base_New",
      "normalTexture": {
        "index": 2
      },
      "occlusionTexture": {
        "index": 3,
        "strength": 0.0
      }
    },
    {
      "doubleSided": true,
      "extensions": {
        "KHR_materials_pbrSpecularGlossiness": {
          "diffuseFactor": [
            1.0,
            1.0,
            1.0,
            1.0
          ],
          "diffuseTexture": {
            "index": 4
          },
          "glossinessFactor": 1.0,
          "specularFactor": [
            1.0,
            1.0,
            1.0
          ],
          "specularGlossinessTexture": {
            "index": 5
          }
        }
      },
      "name": "Cloth_New",
      "normalTexture": {
        "index": 6
      }
    }
  ],
  "meshes": [
    {
      "name": "mesh0.dat-Cloth-0_0",
      "primitives": [
        {
          "attributes": {
            "NORMAL": 1,
            "POSITION": 0,
            "TANGENT": 2,
            "TEXCOORD_0": 3,
            "TEXCOORD_1": 4
          },
          "indices": 5,
          "material": 1,
          "mode": 4
        }
      ]
    },
    {
      "name": "mesh1.dat-Base-0_0",
      "primitives": [
        {
          "attributes": {
            "NORMAL": 7,
            "POSITION": 6,
            "TANGENT": 8,
            "TEXCOORD_0": 9,
            "TEXCOORD_1": 10
          },
          "indices": 11,
          "material": 0,
          "mode": 4
        }
      ]
    }
  ],
  "nodes": [
    {
      "children": [
        1
      ],
      "matrix": [
        1.0,
        0.0,
        0.0,
        0.0,
        0.0,
        2.220446049250313e-16,
        -1.0,
        0.0,
        0.0,
        1.0,
        2.220446049250313e-16,
        0.0,
        0.0,
        0.0,
        0.0,
        1.0
      ],
      "name": "Sketchfab_model"
    },
    {
      "children": [
        2,
        4
      ],
      "name": "Root"
    },
    {
      "children": [
        3
      ],
      "matrix": [
        1.0,
        0.0,
        0.0,
        0.0,
        0.0,
        -0.0,
        1.0,
        0.0,
        0.0,
        -1.0,
        -0.0,
        0.0,
        0.0,
        0.0,
        0.0,
        1.0
      ],
      "name": "mesh0.dat-Cloth-0"
    },
    {
      "mesh": 0,
      "name": "mesh0.dat-Cloth-0_0"
    },
    {
      "children": [
        5
      ],
      "matrix": [
        1.0,
        0.0,
        0.0,
        0.0,
        0.0,
        -0.0,
        1.0,
        0.0,
        0.0,
        -1.0,
        -0.0,
        0.0,
        0.0,
        0.0,
        0.0,
        1.0
      ],
      "name": "mesh1.dat-Base-0"
    },
    {
      "mesh": 1,
      "name": "mesh1.dat-Base-0_0"
    }
  ],
  "samplers": [
    {
      "magFilter": 9729,
      "minFilter": 9987,
      "wrapS": 10497,
      "wrapT": 10497
    }
  ],
  "scene": 0,
  "scenes": [
    {
      "name": "Sketchfab_Scene",
      "nodes": [
        0
      ]
    }
  ],
  "textures": [
    {
      "sampler": 0,
      "source": 0
    },
    {
      "sampler": 0,
      "source": 1
    },
    {
      "sampler": 0,
      "source": 2
    },
    {
      "sampler": 0,
      "source": 3
    },
    {
      "sampler": 0,
      "source": 4
    },
    {
      "sampler": 0,
      "source": 5
    },
    {
      "sampler": 0,
      "source": 6
    }
  ]
}
